<mxfile host="Electron" agent="Mozilla/5.0 (Macintosh; Intel Mac OS X 10_15_7) AppleWebKit/537.36 (KHTML, like Gecko) draw.io/27.0.9 Chrome/134.0.6998.205 Electron/35.4.0 Safari/537.36" version="27.0.9">
  <diagram name="Page-1" id="4vZmwfqMS6sxwy4K_YG9">
    <mxGraphModel dx="1194" dy="541" grid="1" gridSize="10" guides="1" tooltips="1" connect="1" arrows="1" fold="1" page="1" pageScale="1" pageWidth="850" pageHeight="1100" math="0" shadow="0">
      <root>
        <mxCell id="0" />
        <mxCell id="1" parent="0" />
        <mxCell id="NM04y9xdlAhvNInuIH5k-4" value="TB2" style="rounded=0;whiteSpace=wrap;html=1;fontSize=20;verticalAlign=top;align=right;fillColor=#b1ddf0;strokeColor=#10739e;" parent="1" vertex="1">
          <mxGeometry x="130" y="90" width="770" height="440" as="geometry" />
        </mxCell>
        <mxCell id="NM04y9xdlAhvNInuIH5k-6" value="DUT2" style="rounded=0;whiteSpace=wrap;html=1;fontSize=20;fillColor=#fff2cc;strokeColor=#d6b656;" parent="1" vertex="1">
          <mxGeometry x="690" y="340" width="190" height="160" as="geometry" />
        </mxCell>
        <mxCell id="NM04y9xdlAhvNInuIH5k-5" value="DUT1" style="rounded=0;whiteSpace=wrap;html=1;fontSize=20;fillColor=#fff2cc;strokeColor=#d6b656;" parent="1" vertex="1">
          <mxGeometry x="690" y="120" width="190" height="160" as="geometry" />
        </mxCell>
        <mxCell id="qz8rHRJ9PeAzRS3f3c42-6" value="TB1" style="rounded=0;whiteSpace=wrap;html=1;fontSize=20;verticalAlign=top;align=left;fillColor=#b1ddf0;strokeColor=#10739e;" parent="1" vertex="1">
          <mxGeometry x="120" y="80" width="620" height="440" as="geometry" />
        </mxCell>
        <mxCell id="NM04y9xdlAhvNInuIH5k-3" value="TC" style="rounded=0;whiteSpace=wrap;html=1;fontSize=20;verticalAlign=top;align=left;fillColor=#dae8fc;strokeColor=#6c8ebf;" parent="1" vertex="1">
          <mxGeometry x="160" y="153" width="270" height="357" as="geometry" />
        </mxCell>
        <mxCell id="NM04y9xdlAhvNInuIH5k-2" value="TC" style="rounded=0;whiteSpace=wrap;html=1;fontSize=20;verticalAlign=top;align=left;fillColor=#dae8fc;strokeColor=#6c8ebf;" parent="1" vertex="1">
          <mxGeometry x="150" y="140" width="270" height="360" as="geometry" />
        </mxCell>
        <mxCell id="qz8rHRJ9PeAzRS3f3c42-4" value="TC" style="rounded=0;whiteSpace=wrap;html=1;fontSize=20;verticalAlign=top;align=left;fillColor=#dae8fc;strokeColor=#6c8ebf;" parent="1" vertex="1">
          <mxGeometry x="140" y="130" width="270" height="360" as="geometry" />
        </mxCell>
        <mxCell id="qz8rHRJ9PeAzRS3f3c42-2" value="DUT" style="rounded=0;whiteSpace=wrap;html=1;fontSize=20;fillColor=#fff2cc;strokeColor=#d6b656;" parent="1" vertex="1">
          <mxGeometry x="530" y="190" width="190" height="200" as="geometry" />
        </mxCell>
        <mxCell id="qz8rHRJ9PeAzRS3f3c42-3" value="INTERFACE" style="rounded=0;whiteSpace=wrap;html=1;fillColor=#cdeb8b;strokeColor=#36393d;" parent="1" vertex="1">
          <mxGeometry x="450" y="220" width="80" height="40" as="geometry" />
        </mxCell>
        <mxCell id="qz8rHRJ9PeAzRS3f3c42-5" value="INTERFACE" style="rounded=0;whiteSpace=wrap;html=1;fillColor=#cdeb8b;strokeColor=#36393d;" parent="1" vertex="1">
          <mxGeometry x="450" y="313" width="80" height="40" as="geometry" />
        </mxCell>
        <mxCell id="qz8rHRJ9PeAzRS3f3c42-7" value="BFM" style="rounded=0;whiteSpace=wrap;html=1;dashed=1;dashPattern=8 8;fillColor=#fad9d5;strokeColor=#ae4132;" parent="1" vertex="1">
          <mxGeometry x="360" y="220" width="90" height="40" as="geometry" />
        </mxCell>
        <mxCell id="qz8rHRJ9PeAzRS3f3c42-8" value="BFM" style="rounded=0;whiteSpace=wrap;html=1;dashed=1;dashPattern=8 8;fillColor=#fad9d5;strokeColor=#ae4132;" parent="1" vertex="1">
          <mxGeometry x="360" y="313" width="90" height="40" as="geometry" />
        </mxCell>
        <mxCell id="qz8rHRJ9PeAzRS3f3c42-12" value="&lt;font face=&quot;Courier New&quot;&gt;&lt;b&gt;initial&lt;/b&gt;&lt;/font&gt;&lt;div&gt;&lt;font face=&quot;Courier New&quot;&gt;&lt;b&gt;&amp;nbsp;begin&lt;/b&gt;&lt;/font&gt;&lt;/div&gt;&lt;div&gt;&lt;font face=&quot;Courier New&quot;&gt;&lt;b&gt;&lt;br&gt;&lt;/b&gt;&lt;/font&gt;&lt;/div&gt;&lt;div&gt;&lt;font face=&quot;Courier New&quot;&gt;&lt;b&gt;&amp;nbsp;create dynamic BFM object -&amp;gt;&lt;/b&gt;&lt;/font&gt;&lt;/div&gt;&lt;div&gt;&lt;font face=&quot;Courier New&quot;&gt;&lt;b&gt;&lt;br&gt;&lt;/b&gt;&lt;/font&gt;&lt;/div&gt;&lt;div&gt;&lt;font face=&quot;Courier New&quot;&gt;&lt;b&gt;&lt;br&gt;&lt;/b&gt;&lt;/font&gt;&lt;/div&gt;&lt;div&gt;&lt;font face=&quot;Courier New&quot;&gt;&lt;b&gt;&lt;br&gt;&lt;/b&gt;&lt;/font&gt;&lt;/div&gt;&lt;div&gt;&lt;font face=&quot;Courier New&quot;&gt;&lt;b&gt;&lt;br&gt;&lt;/b&gt;&lt;/font&gt;&lt;/div&gt;&lt;div&gt;&lt;br&gt;&lt;/div&gt;&lt;div&gt;&lt;font face=&quot;Courier New&quot;&gt;&lt;b&gt;&amp;nbsp;create dynamic BFM object -&amp;gt;&lt;/b&gt;&lt;/font&gt;&lt;/div&gt;&lt;div&gt;&lt;font face=&quot;Courier New&quot;&gt;&lt;b&gt;&lt;br&gt;&lt;/b&gt;&lt;/font&gt;&lt;/div&gt;&lt;div&gt;&lt;font face=&quot;Courier New&quot;&gt;&lt;b&gt;&lt;br&gt;&lt;/b&gt;&lt;/font&gt;&lt;/div&gt;&lt;div&gt;&lt;font face=&quot;Courier New&quot;&gt;&lt;b&gt;&lt;br&gt;&lt;/b&gt;&lt;/font&gt;&lt;/div&gt;&lt;div&gt;&lt;font style=&quot;color: light-dark(rgb(255, 0, 0), rgb(237, 237, 237));&quot; face=&quot;Courier New&quot;&gt;&lt;b&gt;&amp;nbsp;test-case body&lt;/b&gt;&lt;/font&gt;&lt;/div&gt;&lt;div&gt;&lt;font face=&quot;Courier New&quot;&gt;&lt;b&gt;&lt;br&gt;&lt;/b&gt;&lt;/font&gt;&lt;/div&gt;&lt;div&gt;&lt;font face=&quot;Courier New&quot;&gt;&lt;b&gt;&lt;br&gt;&lt;/b&gt;&lt;/font&gt;&lt;/div&gt;&lt;div&gt;&lt;font face=&quot;Courier New&quot;&gt;&lt;b&gt;&lt;br&gt;&lt;/b&gt;&lt;/font&gt;&lt;/div&gt;&lt;div&gt;&lt;font face=&quot;Courier New&quot;&gt;&lt;b&gt;&amp;nbsp;end&lt;/b&gt;&lt;/font&gt;&lt;/div&gt;" style="text;html=1;align=left;verticalAlign=top;whiteSpace=wrap;rounded=0;" parent="1" vertex="1">
          <mxGeometry x="140" y="183" width="260" height="300" as="geometry" />
        </mxCell>
      </root>
    </mxGraphModel>
  </diagram>
</mxfile>
